M48
; DRILL file {KiCad (5.1.5)-3} date 2020/01/10 16:41:47
; FORMAT={2:4/ absolute / inch / suppress leading zeros}
; #@! TF.CreationDate,2020-01-10T16:41:47+09:00
; #@! TF.GenerationSoftware,Kicad,Pcbnew,(5.1.5)-3
FMAT,2
INCH,TZ
T1C0.0118
T2C0.0354
T3C0.0394
T4C0.0787
T5C0.1181
%
G90
G05
T1
X40354Y-31496
X40354Y-37402
X40354Y-44291
X40354Y-50197
X40354Y-56102
X42126Y-43701
X42126Y-44685
X42854Y-47146
X42913Y-43701
X43504Y-43701
X43563Y-44705
X44035Y-37933
X44035Y-46673
X44291Y-58071
X44488Y-45669
X44488Y-50197
X44488Y-54331
X44882Y-40551
X46063Y-54331
X46594Y-43602
X47244Y-40551
X47461Y-35846
X47736Y-38169
X47815Y-40610
X48031Y-45669
X48031Y-47638
X50098Y-53996
X50492Y-43287
X50571Y-53051
X51181Y-40551
X51358Y-35846
X51358Y-49114
X51378Y-38976
X51673Y-38169
X51969Y-45669
X51969Y-47638
X51969Y-49606
X51969Y-52756
X51969Y-53937
X52067Y-31535
X52559Y-38976
X52756Y-40551
X53543Y-30709
X54134Y-58071
X54429Y-42972
X55118Y-29134
X55295Y-35846
X55512Y-40551
X55709Y-38976
X55748Y-51972
X55885Y-35086
X55906Y-30709
X55906Y-34252
X55906Y-45669
X55906Y-47638
X56201Y-29941
X56693Y-30709
X56693Y-34252
X56693Y-38976
X57087Y-40551
X57283Y-49606
X57283Y-53937
X58661Y-30709
X59055Y-49606
X59075Y-29606
X59193Y-42146
X59272Y-35846
X59449Y-34252
X59783Y-39193
X60079Y-51969
X61024Y-34252
X61024Y-36220
X61024Y-38189
X61024Y-40551
X61024Y-42520
X61024Y-44488
X61024Y-45669
X61417Y-49606
X61417Y-51969
X61417Y-53937
X61811Y-52760
X62047Y-52524
X62598Y-51969
X62598Y-53937
X62992Y-29134
X62992Y-34252
X62992Y-36220
X62992Y-38189
X62992Y-40551
X62992Y-44488
X62992Y-45669
X63937Y-44807
X63957Y-33366
X63976Y-58071
X64567Y-34252
X64803Y-53941
X64961Y-51969
X65354Y-38425
X65827Y-45122
X66142Y-44488
X66535Y-34252
X66594Y-37874
X66614Y-36102
X66614Y-40591
X66614Y-40906
X66614Y-53547
X66614Y-36693
X66614Y-37283
X66850Y-41496
X66850Y-43862
X66850Y-45201
X67638Y-33366
X67717Y-41339
X67717Y-51969
X67795Y-35197
X67795Y-36220
X67795Y-38425
X68130Y-39665
X68243Y-42306
X68366Y-39902
X68524Y-42028
X68681Y-40925
X68701Y-42288
X68819Y-32992
X68819Y-38425
X69154Y-42461
X69291Y-42913
X69291Y-44488
X69291Y-46457
X69291Y-50787
X69685Y-52756
X69705Y-39665
X70310Y-46068
X70310Y-54129
X70472Y-42913
X70728Y-35807
X70768Y-41401
X70787Y-44558
X70866Y-29134
X70866Y-53543
X71063Y-41393
X71209Y-33378
X71260Y-37008
X71260Y-38189
X71417Y-51894
X71594Y-53839
X71594Y-54469
X71614Y-41398
X71841Y-50522
X71845Y-50832
X71909Y-41476
X71929Y-48740
X72047Y-42913
X72047Y-46457
X72047Y-47244
X72776Y-39350
X72776Y-40610
X72810Y-43902
X72835Y-48425
X72835Y-50000
X72835Y-51181
X73012Y-37933
X73563Y-43760
X73622Y-38189
X73661Y-35197
X73661Y-35512
X73661Y-35827
X73720Y-42657
X73720Y-43209
X73799Y-54154
X73819Y-58071
X74114Y-45571
X74193Y-40295
X74370Y-51657
X74429Y-43524
X74439Y-43070
X74508Y-48583
X74665Y-42854
X74665Y-43299
X75039Y-46772
X75062Y-50846
X75197Y-41417
X75295Y-44626
X75310Y-40438
X75354Y-46063
X75531Y-50846
X75532Y-44843
X75591Y-50079
X75709Y-35276
X75768Y-40295
X75768Y-54154
X75925Y-48583
X76306Y-51638
X76319Y-39980
X76378Y-48584
X76378Y-38976
X76594Y-48810
X76602Y-51638
X76654Y-35236
X76811Y-48560
X76811Y-30217
X76882Y-49902
X77028Y-48799
X77087Y-50945
X77184Y-50039
X77185Y-40453
X77185Y-42500
X77185Y-43287
X77185Y-44075
X77185Y-44862
X77244Y-48543
X77323Y-53780
X77323Y-54488
X77402Y-50787
X77461Y-48799
X77628Y-40462
X77677Y-48543
X77677Y-50039
X77972Y-42500
X77972Y-43287
X77972Y-44075
X77972Y-44862
X78061Y-40453
X78071Y-47618
X78287Y-47916
X78346Y-37008
X78346Y-38189
X78386Y-50984
X78386Y-51279
X78524Y-47618
X78524Y-49902
X78740Y-29134
X78760Y-42500
X78760Y-43287
X78760Y-44075
X78760Y-44862
X78799Y-29961
X78839Y-47461
X78976Y-38425
X78976Y-39724
X79291Y-53780
X79291Y-54488
X79350Y-38071
X79547Y-42500
X79547Y-43287
X79547Y-44075
X79547Y-44862
X79626Y-47854
X79685Y-38425
X79685Y-39724
X79783Y-29980
X79911Y-47619
X80059Y-38150
X80118Y-48819
X80177Y-47382
X80315Y-37008
X80394Y-38425
X80394Y-39744
X80512Y-46457
X80728Y-38169
X80739Y-51555
X80965Y-51319
X81101Y-39490
X81102Y-37008
X81102Y-38386
X81299Y-39272
X81339Y-37480
X81535Y-39705
X81594Y-34941
X81594Y-50059
X81693Y-41142
X81831Y-42657
X81850Y-39724
X81911Y-44369
X81916Y-44823
X81918Y-43357
X82087Y-48819
X82106Y-38091
X82146Y-42657
X82146Y-43602
X82188Y-44589
X82259Y-45606
X82323Y-35571
X82382Y-40610
X82382Y-43366
X82559Y-34941
X82677Y-58071
X82842Y-45023
X82854Y-44094
X82874Y-38386
X82874Y-39961
X82874Y-42520
X83012Y-49606
X83091Y-46043
X83248Y-42953
X83248Y-30217
X83248Y-44311
X83248Y-44783
X83248Y-45492
X83307Y-35591
X83799Y-34941
X83878Y-46043
X83878Y-48799
X84193Y-50610
X84291Y-35335
X84370Y-51260
X84665Y-43839
X84744Y-38957
X85039Y-38189
X85039Y-41732
X85039Y-46063
X85039Y-48819
X85276Y-52362
X85295Y-54154
X86004Y-50846
X86398Y-50059
X86400Y-49587
X86614Y-29134
X86634Y-49823
X88583Y-31496
X88583Y-35433
X88583Y-42323
X88583Y-48228
X88583Y-54134
T2
X49508Y-42126
X50508Y-42126
X45571Y-42126
X46571Y-42126
X45571Y-35827
X46571Y-35827
X53445Y-42126
X54445Y-42126
X49508Y-35827
X50508Y-35827
X53445Y-35827
X54445Y-35827
X57382Y-42126
X58382Y-42126
X57382Y-35827
X58382Y-35827
T3
X69209Y-34134
X70209Y-34134
X71209Y-34134
X72209Y-34134
X73209Y-34134
X74209Y-34134
X75209Y-34134
X76209Y-34134
X77209Y-34134
X78209Y-34134
X49035Y-44469
X51004Y-44469
X47067Y-53917
X48051Y-53917
X49035Y-53917
X56909Y-44469
X58878Y-44469
X56909Y-38169
X58878Y-38169
X72799Y-53130
X73799Y-53130
X74799Y-53130
X75799Y-53130
X76799Y-53130
X77799Y-53130
X78799Y-53130
X79799Y-53130
X63787Y-31134
X64787Y-31134
X65787Y-31134
X66787Y-31134
X60043Y-31134
X61043Y-31134
X62043Y-31134
X52972Y-44469
X54941Y-44469
X79795Y-34134
X80795Y-34134
X81795Y-34134
X82795Y-34134
X83795Y-34134
X84795Y-34134
X85795Y-34134
X86795Y-34134
X68787Y-31134
X68787Y-32134
X69787Y-31134
X69787Y-32134
X70787Y-31134
X70787Y-32134
X71787Y-31134
X71787Y-32134
X72787Y-31134
X72787Y-32134
X73787Y-31134
X73787Y-32134
X74787Y-31134
X74787Y-32134
X75787Y-31134
X75787Y-32134
X76787Y-31134
X76787Y-32134
X77787Y-31134
X77787Y-32134
X78787Y-31134
X78787Y-32134
X79787Y-31134
X79787Y-32134
X80787Y-31134
X80787Y-32134
X81787Y-31134
X81787Y-32134
X82787Y-31134
X82787Y-32134
X83787Y-31134
X83787Y-32134
X84787Y-31134
X84787Y-32134
X85787Y-31134
X85787Y-32134
X86787Y-31134
X86787Y-32134
X45098Y-38169
X47067Y-38169
X43185Y-36894
X43185Y-37894
X43185Y-38894
X43185Y-39894
X43185Y-40894
X43185Y-41894
X43185Y-42894
X68795Y-55150
X68795Y-56150
X69795Y-55150
X69795Y-56150
X70795Y-55150
X70795Y-56150
X71795Y-55150
X71795Y-56150
X72795Y-55150
X72795Y-56150
X73795Y-55150
X73795Y-56150
X74795Y-55150
X74795Y-56150
X75795Y-55150
X75795Y-56150
X76795Y-55150
X76795Y-56150
X77795Y-55150
X77795Y-56150
X78795Y-55150
X78795Y-56150
X79795Y-55150
X79795Y-56150
X80795Y-55150
X80795Y-56150
X81795Y-55150
X81795Y-56150
X82795Y-55150
X82795Y-56150
X83795Y-55150
X83795Y-56150
X84795Y-55150
X84795Y-56150
X85795Y-55150
X85795Y-56150
X86795Y-55150
X86795Y-56150
X45098Y-44469
X47067Y-44469
X64795Y-56150
X65795Y-56150
X66795Y-56150
X52972Y-38169
X54941Y-38169
X56890Y-51968
X58858Y-51968
X52953Y-51968
X54921Y-51968
X81791Y-53130
X82791Y-53130
X83791Y-53130
X84791Y-53130
X85791Y-53130
X86791Y-53130
X49035Y-38169
X51004Y-38169
X86185Y-36894
X86185Y-37894
X86185Y-38894
X86185Y-39894
X86185Y-40894
X86185Y-41894
X86185Y-42894
T4
X46319Y-51161
X49783Y-51161
T5
G00X40571Y-29496
M15
G01X40571Y-29752
M16
G05
G00X88799Y-57587
M15
G01X88799Y-57843
M16
G05
G00X40571Y-57587
M15
G01X40571Y-57843
M16
G05
G00X88799Y-29496
M15
G01X88799Y-29752
M16
G05
T0
M30
