G04 #@! TF.GenerationSoftware,KiCad,Pcbnew,(5.1.5)-3*
G04 #@! TF.CreationDate,2020-01-10T08:04:25+09:00*
G04 #@! TF.ProjectId,NTS-1_CustomPanel,4e54532d-315f-4437-9573-746f6d50616e,C*
G04 #@! TF.SameCoordinates,Original*
G04 #@! TF.FileFunction,Legend,Bot*
G04 #@! TF.FilePolarity,Positive*
%FSLAX46Y46*%
G04 Gerber Fmt 4.6, Leading zero omitted, Abs format (unit mm)*
G04 Created by KiCad (PCBNEW (5.1.5)-3) date 2020-01-10 08:04:25*
%MOMM*%
%LPD*%
G04 APERTURE LIST*
%ADD10C,0.025000*%
%ADD11C,0.100000*%
%ADD12C,0.120000*%
%ADD13C,0.150000*%
G04 APERTURE END LIST*
D10*
X108925545Y-63595228D02*
X108916021Y-63590466D01*
X108911259Y-63585704D01*
X108906497Y-63576180D01*
X108906497Y-63547609D01*
X108911259Y-63538085D01*
X108916021Y-63533323D01*
X108925545Y-63528561D01*
X108939830Y-63528561D01*
X108949354Y-63533323D01*
X108954116Y-63538085D01*
X108958878Y-63547609D01*
X108958878Y-63576180D01*
X108954116Y-63585704D01*
X108949354Y-63590466D01*
X108939830Y-63595228D01*
X108925545Y-63595228D01*
D11*
D12*
X108360000Y-92380000D02*
X111020000Y-92380000D01*
X108360000Y-107680000D02*
X108360000Y-92380000D01*
X111020000Y-107680000D02*
X111020000Y-92380000D01*
X108360000Y-107680000D02*
X111020000Y-107680000D01*
X108360000Y-108950000D02*
X108360000Y-110280000D01*
X108360000Y-110280000D02*
X109690000Y-110280000D01*
X217580000Y-110280000D02*
X218910000Y-110280000D01*
X217580000Y-108950000D02*
X217580000Y-110280000D01*
X217580000Y-107680000D02*
X220240000Y-107680000D01*
X220240000Y-107680000D02*
X220240000Y-92380000D01*
X217580000Y-107680000D02*
X217580000Y-92380000D01*
X217580000Y-92380000D02*
X220240000Y-92380000D01*
D13*
X110242380Y-111565714D02*
X110280476Y-111603809D01*
X110394761Y-111641904D01*
X110470952Y-111641904D01*
X110585238Y-111603809D01*
X110661428Y-111527619D01*
X110699523Y-111451428D01*
X110737619Y-111299047D01*
X110737619Y-111184761D01*
X110699523Y-111032380D01*
X110661428Y-110956190D01*
X110585238Y-110880000D01*
X110470952Y-110841904D01*
X110394761Y-110841904D01*
X110280476Y-110880000D01*
X110242380Y-110918095D01*
X109899523Y-111641904D02*
X109899523Y-110841904D01*
X109442380Y-111641904D01*
X109442380Y-110841904D01*
X109099523Y-110918095D02*
X109061428Y-110880000D01*
X108985238Y-110841904D01*
X108794761Y-110841904D01*
X108718571Y-110880000D01*
X108680476Y-110918095D01*
X108642380Y-110994285D01*
X108642380Y-111070476D01*
X108680476Y-111184761D01*
X109137619Y-111641904D01*
X108642380Y-111641904D01*
X219462380Y-111565714D02*
X219500476Y-111603809D01*
X219614761Y-111641904D01*
X219690952Y-111641904D01*
X219805238Y-111603809D01*
X219881428Y-111527619D01*
X219919523Y-111451428D01*
X219957619Y-111299047D01*
X219957619Y-111184761D01*
X219919523Y-111032380D01*
X219881428Y-110956190D01*
X219805238Y-110880000D01*
X219690952Y-110841904D01*
X219614761Y-110841904D01*
X219500476Y-110880000D01*
X219462380Y-110918095D01*
X219119523Y-111641904D02*
X219119523Y-110841904D01*
X218662380Y-111641904D01*
X218662380Y-110841904D01*
X218357619Y-110841904D02*
X217824285Y-110841904D01*
X218167142Y-111641904D01*
M02*
