G04 #@! TF.GenerationSoftware,KiCad,Pcbnew,(5.1.5)-3*
G04 #@! TF.CreationDate,2020-01-10T16:41:32+09:00*
G04 #@! TF.ProjectId,NTS-1_CustomPanel,4e54532d-315f-4437-9573-746f6d50616e,C*
G04 #@! TF.SameCoordinates,Original*
G04 #@! TF.FileFunction,Soldermask,Bot*
G04 #@! TF.FilePolarity,Negative*
%FSLAX46Y46*%
G04 Gerber Fmt 4.6, Leading zero omitted, Abs format (unit mm)*
G04 Created by KiCad (PCBNEW (5.1.5)-3) date 2020-01-10 16:41:32*
%MOMM*%
%LPD*%
G04 APERTURE LIST*
%ADD10C,0.100000*%
%ADD11O,1.800000X1.800000*%
%ADD12R,1.800000X1.800000*%
%ADD13O,3.100000X3.750000*%
%ADD14C,1.800000*%
%ADD15C,1.900000*%
%ADD16C,4.100000*%
%ADD17R,1.900000X1.900000*%
G04 APERTURE END LIST*
D10*
X140388480Y-131999990D02*
G75*
G03X140388480Y-131999990I-889000J0D01*
G01*
X135388480Y-131999990D02*
G75*
G03X135388480Y-131999990I-889000J0D01*
G01*
X150388480Y-131999990D02*
G75*
G03X150388480Y-131999990I-889000J0D01*
G01*
X145388480Y-131999990D02*
G75*
G03X145388480Y-131999990I-889000J0D01*
G01*
X120439000Y-112950000D02*
G75*
G03X120439000Y-112950000I-889000J0D01*
G01*
X115439000Y-112950000D02*
G75*
G03X115439000Y-112950000I-889000J0D01*
G01*
X120439000Y-96950000D02*
G75*
G03X120439000Y-96950000I-889000J0D01*
G01*
X115439000Y-96950000D02*
G75*
G03X115439000Y-96950000I-889000J0D01*
G01*
X125439000Y-96950000D02*
G75*
G03X125439000Y-96950000I-889000J0D01*
G01*
X130439000Y-96950000D02*
G75*
G03X130439000Y-96950000I-889000J0D01*
G01*
X140439000Y-96950000D02*
G75*
G03X140439000Y-96950000I-889000J0D01*
G01*
X135439000Y-96950000D02*
G75*
G03X135439000Y-96950000I-889000J0D01*
G01*
X145439000Y-96950000D02*
G75*
G03X145439000Y-96950000I-889000J0D01*
G01*
X150439000Y-96950000D02*
G75*
G03X150439000Y-96950000I-889000J0D01*
G01*
X125439000Y-112950000D02*
G75*
G03X125439000Y-112950000I-889000J0D01*
G01*
X130439000Y-112950000D02*
G75*
G03X130439000Y-112950000I-889000J0D01*
G01*
X135439000Y-112950000D02*
G75*
G03X135439000Y-112950000I-889000J0D01*
G01*
X140439000Y-112950000D02*
G75*
G03X140439000Y-112950000I-889000J0D01*
G01*
X150439000Y-112950000D02*
G75*
G03X150439000Y-112950000I-889000J0D01*
G01*
X145439000Y-112950000D02*
G75*
G03X145439000Y-112950000I-889000J0D01*
G01*
D11*
X220450000Y-134950000D03*
X217910000Y-134950000D03*
X215370000Y-134950000D03*
X212830000Y-134950000D03*
X210290000Y-134950000D03*
D12*
X207750000Y-134950000D03*
D11*
X169660000Y-142620000D03*
X167120000Y-142620000D03*
D12*
X164580000Y-142620000D03*
D11*
X162020000Y-79080000D03*
X164560000Y-79080000D03*
X167100000Y-79080000D03*
D12*
X169640000Y-79080000D03*
D13*
X225550000Y-146596000D03*
X103050000Y-75246000D03*
X225550000Y-75246000D03*
X103050000Y-146596000D03*
D14*
X134499480Y-131999990D03*
X139499480Y-131999990D03*
X144499480Y-131999990D03*
X149499480Y-131999990D03*
D11*
X220440000Y-81620000D03*
X220440000Y-79080000D03*
X217900000Y-81620000D03*
X217900000Y-79080000D03*
X215360000Y-81620000D03*
X215360000Y-79080000D03*
X212820000Y-81620000D03*
X212820000Y-79080000D03*
X210280000Y-81620000D03*
X210280000Y-79080000D03*
X207740000Y-81620000D03*
X207740000Y-79080000D03*
X205200000Y-81620000D03*
X205200000Y-79080000D03*
X202660000Y-81620000D03*
X202660000Y-79080000D03*
X200120000Y-81620000D03*
X200120000Y-79080000D03*
X197580000Y-81620000D03*
X197580000Y-79080000D03*
X195040000Y-81620000D03*
X195040000Y-79080000D03*
X192500000Y-81620000D03*
X192500000Y-79080000D03*
X189960000Y-81620000D03*
X189960000Y-79080000D03*
X187420000Y-81620000D03*
X187420000Y-79080000D03*
X184880000Y-81620000D03*
X184880000Y-79080000D03*
X182340000Y-81620000D03*
X182340000Y-79080000D03*
X179800000Y-81620000D03*
X179800000Y-79080000D03*
X177260000Y-81620000D03*
X177260000Y-79080000D03*
X174720000Y-81620000D03*
D12*
X174720000Y-79080000D03*
D14*
X114550000Y-112950000D03*
X119550000Y-112950000D03*
D12*
X174740000Y-140080000D03*
D11*
X174740000Y-142620000D03*
X177280000Y-140080000D03*
X177280000Y-142620000D03*
X179820000Y-140080000D03*
X179820000Y-142620000D03*
X182360000Y-140080000D03*
X182360000Y-142620000D03*
X184900000Y-140080000D03*
X184900000Y-142620000D03*
X187440000Y-140080000D03*
X187440000Y-142620000D03*
X189980000Y-140080000D03*
X189980000Y-142620000D03*
X192520000Y-140080000D03*
X192520000Y-142620000D03*
X195060000Y-140080000D03*
X195060000Y-142620000D03*
X197600000Y-140080000D03*
X197600000Y-142620000D03*
X200140000Y-140080000D03*
X200140000Y-142620000D03*
X202680000Y-140080000D03*
X202680000Y-142620000D03*
X205220000Y-140080000D03*
X205220000Y-142620000D03*
X207760000Y-140080000D03*
X207760000Y-142620000D03*
X210300000Y-140080000D03*
X210300000Y-142620000D03*
X212840000Y-140080000D03*
X212840000Y-142620000D03*
X215380000Y-140080000D03*
X215380000Y-142620000D03*
X217920000Y-140080000D03*
X217920000Y-142620000D03*
X220460000Y-140080000D03*
X220460000Y-142620000D03*
X202690000Y-134950000D03*
X200150000Y-134950000D03*
X197610000Y-134950000D03*
X195070000Y-134950000D03*
X192530000Y-134950000D03*
X189990000Y-134950000D03*
X187450000Y-134950000D03*
D12*
X184910000Y-134950000D03*
X220460000Y-86700000D03*
D11*
X217920000Y-86700000D03*
X215380000Y-86700000D03*
X212840000Y-86700000D03*
X210300000Y-86700000D03*
X207760000Y-86700000D03*
X205220000Y-86700000D03*
X202680000Y-86700000D03*
D12*
X109690000Y-108950000D03*
D11*
X109690000Y-106410000D03*
X109690000Y-103870000D03*
X109690000Y-101330000D03*
X109690000Y-98790000D03*
X109690000Y-96250000D03*
X109690000Y-93710000D03*
X218910000Y-93710000D03*
X218910000Y-96250000D03*
X218910000Y-98790000D03*
X218910000Y-101330000D03*
X218910000Y-103870000D03*
X218910000Y-106410000D03*
D12*
X218910000Y-108950000D03*
D15*
X119550000Y-136950000D03*
X122050000Y-136950000D03*
X124550000Y-136950000D03*
D16*
X117650000Y-129950000D03*
X126450000Y-129950000D03*
D17*
X115750000Y-90999990D03*
D15*
X118290000Y-90999990D03*
X128290000Y-90999990D03*
D17*
X125750000Y-90999990D03*
X135750000Y-90999990D03*
D15*
X138290000Y-90999990D03*
X148290000Y-90999990D03*
D17*
X145750000Y-90999990D03*
X115750000Y-107000000D03*
D15*
X118290000Y-107000000D03*
X128290000Y-107000000D03*
D17*
X125750000Y-107000000D03*
X135750000Y-107000000D03*
D15*
X138290000Y-107000000D03*
X148290000Y-107000000D03*
D17*
X145750000Y-107000000D03*
D14*
X114550000Y-96950000D03*
X119550000Y-96950000D03*
X129550000Y-96950000D03*
X124550000Y-96950000D03*
X134550000Y-96950000D03*
X139550000Y-96950000D03*
X149550000Y-96950000D03*
X144550000Y-96950000D03*
X129550000Y-112950000D03*
X124550000Y-112950000D03*
X139550000Y-112950000D03*
X134550000Y-112950000D03*
X144550000Y-112950000D03*
X149550000Y-112950000D03*
D12*
X198650000Y-86700000D03*
D11*
X196110000Y-86700000D03*
X193570000Y-86700000D03*
X191030000Y-86700000D03*
X188490000Y-86700000D03*
X185950000Y-86700000D03*
X183410000Y-86700000D03*
X180870000Y-86700000D03*
X178330000Y-86700000D03*
X175790000Y-86700000D03*
D12*
X157590000Y-79080000D03*
D11*
X155050000Y-79080000D03*
X152510000Y-79080000D03*
M02*
